<svg width="349" height="274" viewBox="0 0 349 274" fill="none" xmlns="http://www.w3.org/2000/svg">
<g id="undraw basketball agx4 1">
<path id="Background" d="M307.165 126.292C311.13 134.44 308.607 146.131 314.221 152.791C318.339 157.675 325.173 157.647 329.841 161.768C333.473 164.984 335.283 170.246 336.929 175.241L344.928 199.523C348.57 210.582 351.682 224.818 344.345 232.925C339.947 237.782 333.304 238.333 327.297 237.816C283.827 234.073 248.861 190.192 205.539 184.527C174.919 180.521 144.667 196.283 113.87 195.413C97.5813 194.951 81.6771 189.863 65.9599 184.784C53.8714 180.889 40.4555 175.765 34.692 162.632C32.117 156.763 31.3164 149.672 27.4902 144.847C24.5582 141.146 20.3196 139.394 16.6771 136.713C0.810935 125.019 -1.00857 98.8637 0.374255 76.8399C1.14018 64.6225 2.43637 52.1138 7.26415 41.2701C12.0919 30.4264 21.1756 21.4594 31.5451 21.1056C38.1023 20.8801 44.3684 24.009 50.7488 25.7573C57.1292 27.5056 64.6117 27.5577 69.4014 22.2885C73.3316 17.9628 74.5654 11.0146 78.4955 6.67855C81.5558 3.31027 85.8255 2.00251 89.9532 1.20121C112.151 -3.10713 135.798 4.37175 153.206 21.2027C157.438 25.2925 161.469 30.0102 166.64 32.1088C173.526 34.9013 181.054 32.5355 188.335 32.5945C214.023 32.8026 231.446 60.6299 249.551 78.1719C260.135 88.4294 270.373 90.6391 281.858 97.4727C288.966 101.705 302.878 117.485 307.165 126.292Z" fill="url(#paint0_linear)"/>
<g id="Hoop">
<g id="Hoop 2">
<path id="Vector 37" d="M105.424 123.762H89.8839V265.861H105.424V123.762Z" fill="url(#paint1_linear)"/>
<path id="Vector 38" d="M122.375 272.223H73.6365L90.9444 261.265H104.01L122.375 272.223Z" fill="url(#paint2_linear)"/>
<path id="Vector 39" d="M21.3697 50.9473C21.3697 50.9473 87.0663 -14.0836 172.171 50.9473V107.143C172.171 107.143 105.424 147.441 21.3732 107.143L21.3697 50.9473Z" fill="url(#paint3_linear)"/>
<path id="Vector 40" d="M26.1386 52.3764C26.1386 52.3764 87.6728 -8.55079 167.402 52.3764V105.027C167.402 105.027 104.877 142.775 26.1386 105.027V52.3764Z" fill="url(#paint4_linear)"/>
<path id="Vector 41" d="M115.309 83.4679H77.8751V115.281H115.309V83.4679Z" fill="url(#paint5_linear)"/>
<path id="Vector 42" d="M112.131 86.1667H81.0532V112.579H112.131V86.1667Z" fill="url(#paint6_linear)"/>
<g id="Group" opacity="0.1">
<path id="Vector 43" opacity="0.1" d="M109.694 163.765L97.8863 143.403L87.4128 163.051L78.3257 142.46L68.8711 163.425L68.5419 163.294C72.3542 152.152 68.5731 120.567 68.5419 120.248L68.3963 119.065L78.3361 141.589L86.6227 123.204L97.8967 142.654L108.207 123.284L116.941 143.233L125.418 120.418L127.539 119.995L127.491 120.252C127.428 120.578 121.637 151.125 124.929 161.483L125.713 163.273L125.401 163.436C125.062 162.858 124.792 162.242 124.597 161.601L116.972 144.177L109.694 163.765ZM98.0804 143.025L109.621 162.94L116.764 143.719L108.176 124.102L98.0804 143.025ZM78.5059 142.015L87.4128 162.242L97.6645 143.032L86.64 123.977L78.5059 142.015ZM69.0028 121.355C69.6059 126.794 71.9522 149.997 69.4707 161.195L78.1351 142.015L69.0028 121.355ZM117.149 143.712L124.105 159.599C121.991 148.291 126.531 123.485 127.099 120.453L125.688 120.734L117.149 143.712Z" fill="url(#paint7_linear)"/>
</g>
<g id="Group 2" opacity="0.1">
<path id="Vector 44" opacity="0.1" d="M78.9287 163.81L70.1673 141.856L70.4966 141.724L78.946 162.884L87.4128 143.545L76.1249 122.788L76.4334 122.618L87.5896 143.136L96.0495 123.821H96.1534L121.273 121.445L98.0041 163.013L87.6312 143.934L78.9287 163.81ZM87.8114 143.528L98.0076 162.281L120.642 121.851L96.299 124.154L87.8114 143.528Z" fill="url(#paint8_linear)"/>
</g>
<g id="Group 3" opacity="0.1">
<path id="Vector 45" opacity="0.1" d="M116.393 162.721L116.213 162.374L95.3771 122.076L95.6925 121.913L116.348 161.861L124.112 141.728L124.441 141.856L116.393 162.721Z" fill="url(#paint9_linear)"/>
</g>
<path id="Vector 46" d="M97.3006 114.927C80.7205 114.927 67.2838 117.144 67.2838 119.877C67.2838 122.611 80.724 124.827 97.3006 124.827C113.877 124.827 127.317 122.611 127.317 119.877C127.317 117.144 113.877 114.927 97.3006 114.927ZM97.3006 122.704C82.086 122.704 69.7549 121.279 69.7549 119.523C69.7549 117.768 82.086 116.346 97.3006 116.346C112.515 116.346 124.843 117.765 124.843 119.523C124.843 121.282 112.512 122.704 97.3006 122.704Z" fill="url(#paint10_linear)"/>
<g id="Group 4" opacity="0.2">
<path id="Vector 47" opacity="0.2" d="M97.3006 114.927C80.7205 114.927 67.2838 117.144 67.2838 119.877C67.2838 122.611 80.724 124.827 97.3006 124.827C113.877 124.827 127.317 122.611 127.317 119.877C127.317 117.144 113.877 114.927 97.3006 114.927ZM97.3006 122.704C82.086 122.704 69.7549 121.279 69.7549 119.523C69.7549 117.768 82.086 116.346 97.3006 116.346C112.515 116.346 124.843 117.765 124.843 119.523C124.843 121.282 112.512 122.704 97.3006 122.704Z" fill="url(#paint11_linear)"/>
</g>
<path id="Vector 48" d="M97.3006 113.869C80.7205 113.869 67.2838 116.086 67.2838 118.819C67.2838 121.553 80.724 123.769 97.3006 123.769C113.877 123.769 127.317 121.553 127.317 118.819C127.317 116.086 113.877 113.869 97.3006 113.869ZM97.3006 121.646C82.086 121.646 69.7549 120.221 69.7549 118.465C69.7549 116.71 82.0895 115.284 97.3006 115.284C112.512 115.284 124.843 116.693 124.843 118.462C124.843 120.231 112.512 121.643 97.3006 121.643V121.646Z" fill="url(#paint12_linear)"/>
<path id="Vector 49" d="M105.261 124.199H90.0122V263.648H105.261V124.199Z" fill="#E8EAF1"/>
<path id="Vector 50" d="M121.897 269.892H74.0698L91.0519 259.138H103.875L121.897 269.892Z" fill="#E8EAF1"/>
<path id="Vector 51" d="M22.7768 52.7407C22.7768 52.7407 87.2396 -11.0865 170.764 52.7407V107.896C170.764 107.896 105.261 147.441 22.7768 107.896V52.7407Z" fill="#E8EAF1"/>
<path id="Vector 52" d="M27.4556 54.1455C27.4556 54.1455 87.8426 -5.64735 166.085 54.1455V105.811C166.085 105.811 104.742 142.855 27.4556 105.811V54.1455Z" fill="#D0D5DB"/>
<path id="Vector 53" d="M114.965 84.6543H78.2286V115.874H114.965V84.6543Z" fill="#F75252" fill-opacity="0.78"/>
<path id="Vector 54" d="M111.846 87.3045H81.3478V113.224H111.846V87.3045Z" fill="#F3F5F7"/>
<path id="Vector 55" d="M109.455 163.457L97.8655 143.462L87.5688 162.752L78.6515 142.546L69.391 163.124L69.0687 162.995C72.8256 152.058 69.0999 121.064 69.0687 120.751L68.9266 119.589L78.6827 141.693L86.8168 123.655L97.8794 142.734L108.024 123.724L116.594 143.302L124.912 120.911L126.992 120.495L126.943 120.748C126.881 121.07 121.197 151.045 124.43 161.212L125.2 162.967L124.891 163.127C124.559 162.56 124.294 161.956 124.101 161.327L116.615 144.225L109.455 163.457ZM98.0596 143.101L109.386 162.645L116.393 143.785L107.968 124.532L98.0596 143.101ZM78.8456 142.123L87.6 161.965L97.6507 143.112L86.8202 124.421L78.8456 142.123ZM69.5192 121.847C70.1119 127.183 72.4131 149.945 69.9767 160.945L78.4643 142.123L69.5192 121.847ZM116.768 143.774L123.592 159.36C121.512 148.259 125.969 123.918 126.531 120.946L125.144 121.223L116.768 143.774Z" fill="black" fill-opacity="0.72"/>
<path id="Vector 56" d="M79.2614 163.502L70.6629 141.957L70.9852 141.828L79.2788 162.603L87.5965 143.615L76.5062 123.245L76.8112 123.079L87.7594 143.198L96.0772 124.244H96.1777L120.83 121.913L97.9799 162.718L87.801 143.986L79.2614 163.502ZM87.9778 143.597L97.9834 162L120.199 122.323L96.3094 124.581L87.9778 143.597Z" fill="black" fill-opacity="0.72"/>
<path id="Vector 57" d="M116.029 162.433L115.849 162.09L95.4014 122.545L95.7099 122.385L115.981 161.587L123.602 141.828L123.924 141.953L116.029 162.433Z" fill="black" fill-opacity="0.72"/>
<path id="Vector 58" d="M97.2902 115.527C81.022 115.527 67.8314 117.702 67.8314 120.384C67.8314 123.065 81.022 125.24 97.2902 125.24C113.558 125.24 126.749 123.065 126.749 120.384C126.749 117.702 113.558 115.527 97.2902 115.527ZM97.2902 123.159C82.3598 123.159 70.2574 121.771 70.2574 120.037C70.2574 118.302 82.3598 116.915 97.2902 116.915C112.221 116.915 124.323 118.302 124.323 120.037C124.323 121.771 112.221 123.159 97.2902 123.159Z" fill="#5F546F"/>
<path id="Vector 59" opacity="0.2" d="M97.2902 115.527C81.022 115.527 67.8314 117.702 67.8314 120.384C67.8314 123.065 81.022 125.24 97.2902 125.24C113.558 125.24 126.749 123.065 126.749 120.384C126.749 117.702 113.558 115.527 97.2902 115.527ZM97.2902 123.159C82.3598 123.159 70.2574 121.771 70.2574 120.037C70.2574 118.302 82.3598 116.915 97.2902 116.915C112.221 116.915 124.323 118.302 124.323 120.037C124.323 121.771 112.221 123.159 97.2902 123.159Z" fill="black"/>
<path id="Vector 60" d="M97.2902 114.487C81.022 114.487 67.8314 116.662 67.8314 119.343C67.8314 122.024 81.022 124.199 97.2902 124.199C113.558 124.199 126.749 122.024 126.749 119.343C126.749 116.662 113.558 114.487 97.2902 114.487ZM97.2902 122.118C82.3598 122.118 70.2574 120.731 70.2574 118.996C70.2574 117.262 82.3598 115.874 97.2902 115.874C112.221 115.874 124.323 117.262 124.323 118.996C124.323 120.731 112.221 122.118 97.2902 122.118Z" fill="#5F546F"/>
</g>
<path id="Vector 61" opacity="0.1" d="M105.088 258.271H89.8389V260.006H105.088V258.271Z" fill="black"/>
</g>
<g id="player shadow">
<path id="Vector" opacity="0.1" d="M210.52 255.798C201.132 258.437 190.786 255.739 181.54 258.84C180.726 259.07 179.965 259.459 179.301 259.984C177.09 261.917 177.963 265.687 179.939 267.859C183.096 271.328 188.059 272.41 192.72 272.875C215.49 275.14 238.264 266.898 261.061 268.632C264.451 268.892 268.402 269.173 270.675 266.645C272.353 264.782 272.467 261.91 271.639 259.544C270.117 255.201 265.913 252.235 261.488 250.99C257.062 249.744 252.373 249.949 247.777 250.154C241.539 250.438 235.248 250.358 229.027 250.771C222.377 251.229 216.821 254.039 210.52 255.798Z" fill="#6C63FF"/>
</g>
<g id="player body">
<path id="Vector 2" d="M204.891 150.81C204.891 150.81 187.406 161.005 191.142 155.225C192.758 152.791 193.603 149.926 193.568 147.004C193.567 146.05 193.439 145.1 193.187 144.181L200.486 140.781C200.359 141.782 200.449 142.798 200.749 143.761C201.771 147.375 204.891 150.81 204.891 150.81Z" fill="#DB8B8B"/>
<path id="Vector 3" opacity="0.1" d="M200.739 143.764C200.046 145.003 198.975 145.986 197.682 146.57C196.39 147.154 194.944 147.307 193.558 147.008C193.557 146.054 193.429 145.104 193.176 144.184L200.475 140.785C200.349 141.785 200.439 142.801 200.739 143.764Z" fill="black"/>
<path id="Vector 4" d="M194.961 146.817C198.617 146.817 201.581 143.851 201.581 140.191C201.581 136.532 198.617 133.566 194.961 133.566C191.305 133.566 188.342 136.532 188.342 140.191C188.342 143.851 191.305 146.817 194.961 146.817Z" fill="#DB8B8B"/>
<path id="Vector 5" opacity="0.1" d="M190.73 136.667C191.369 136.798 191.934 137.171 192.307 137.708C192.743 138.401 192.733 139.352 193.346 139.893C193.809 140.235 194.388 140.382 194.958 140.302C195.521 140.22 196.092 140.201 196.659 140.243C197.578 140.393 198.33 141.072 198.839 141.849C199.303 142.655 199.715 143.49 200.073 144.347C200.22 144.687 200.429 144.997 200.69 145.259C200.822 145.389 200.983 145.487 201.159 145.543C201.335 145.6 201.523 145.615 201.706 145.585C202.18 144.545 201.771 143.282 202.225 142.245C202.471 141.805 202.743 141.381 203.04 140.975C203.733 139.799 203.639 138.329 203.435 136.979C203.217 135.526 202.884 134.045 202.049 132.838C201.213 131.631 199.775 130.756 198.32 130.933C197.162 131.086 196.147 131.88 194.982 131.95C194.161 131.998 193.367 131.676 192.584 131.422C191.742 131.151 190.878 130.953 190.002 130.833C189.42 130.753 188.737 130.739 188.345 131.18C188.19 131.37 188.072 131.59 187.999 131.825L187.247 133.906C187.208 133.977 187.187 134.056 187.187 134.137C187.187 134.218 187.208 134.297 187.247 134.368C187.316 134.451 187.434 134.475 187.524 134.538C188.12 134.923 187.319 135.873 187.811 136.341C188.304 136.809 190.04 136.504 190.73 136.667Z" fill="black"/>
<path id="Vector 6" d="M190.899 136.497C191.539 136.628 192.104 137.001 192.476 137.538C192.913 138.231 192.903 139.182 193.516 139.723C193.979 140.065 194.558 140.212 195.128 140.132C195.691 140.05 196.262 140.031 196.829 140.073C197.748 140.223 198.5 140.902 199.009 141.679C199.473 142.485 199.885 143.32 200.243 144.177C200.39 144.517 200.599 144.827 200.86 145.089C200.992 145.219 201.152 145.317 201.329 145.373C201.505 145.43 201.692 145.445 201.875 145.415C202.35 144.375 201.941 143.112 202.395 142.075C202.641 141.635 202.913 141.211 203.21 140.805C203.903 139.629 203.809 138.159 203.605 136.809C203.387 135.356 203.054 133.875 202.219 132.668C201.383 131.461 199.945 130.586 198.489 130.763C197.332 130.916 196.316 131.71 195.152 131.78C194.331 131.828 193.537 131.506 192.754 131.252C191.912 130.981 191.048 130.783 190.172 130.663C189.589 130.583 188.907 130.569 188.515 131.01C188.359 131.2 188.242 131.42 188.168 131.655L187.416 133.736C187.378 133.807 187.357 133.886 187.357 133.967C187.357 134.048 187.378 134.127 187.416 134.198C187.486 134.281 187.604 134.305 187.694 134.368C188.29 134.753 187.489 135.703 187.981 136.171C188.473 136.639 190.21 136.334 190.899 136.497Z" fill="#472727"/>
<path id="Vector 7" d="M227.297 150.3C227.297 150.3 222.036 155.225 214.737 156.245C214.737 156.245 212.567 156.738 211.008 159.607C210.439 160.685 210.036 161.843 209.812 163.041L201.979 149.758L201.494 148.936H214.563C215.567 147.731 216.809 146.746 218.211 146.045C219.613 145.343 221.146 144.94 222.711 144.86L224.749 143.501C224.749 143.501 222.711 127.7 219.658 126.85C219.658 126.85 218.168 125.359 216.473 123.909C215.433 123.035 214.756 121.803 214.576 120.456C214.396 119.108 214.725 117.742 215.499 116.624C215.541 116.565 215.582 116.506 215.627 116.451C217.36 114.186 220.982 114.973 221.71 117.741C222.215 119.622 222.607 121.531 222.885 123.458L223.734 126.347L226.791 132.633L231.712 144.524C231.712 144.524 232.727 147.244 227.297 150.3Z" fill="#DB8B8B"/>
<path id="Vector 8" d="M188.255 150.979L187.236 159.999L184.945 160.127L184.179 160.169C184.179 160.169 181.123 163.228 178.069 164.244C175.016 165.261 170.94 167.984 170.94 167.984L158.55 173.409L154.478 175.279C154.478 175.279 144.292 182.428 142.254 179.185C140.216 175.941 151.092 172.715 151.092 172.715L158.221 168.976C168.067 160.481 171.46 161.344 171.46 161.344L179.085 156.929C180.948 154.199 183.705 152.205 186.879 151.292C187.329 151.154 187.789 151.05 188.255 150.979Z" fill="#DB8B8B"/>
<path id="Vector 9" opacity="0.1" d="M211.008 159.607C210.439 160.685 210.036 161.843 209.812 163.041L201.979 149.758C202.166 149.499 202.33 149.224 202.468 148.936C202.668 148.529 202.826 148.103 202.939 147.663L204.073 147.92L207.14 148.614L208.204 148.853C208.204 148.881 208.183 148.909 208.176 148.936C206.748 153.134 209.441 157.529 211.008 159.607Z" fill="black"/>
<path id="Vector 10" opacity="0.1" d="M188.255 150.979L187.236 159.999L184.945 160.127C185.919 158.392 186.581 153.8 186.883 151.306C187.331 151.163 187.79 151.054 188.255 150.979Z" fill="black"/>
<path id="Vector 11" d="M210.391 166.184C207.844 170.879 206.532 176.146 206.578 181.488V182.154V182.241C206.578 182.241 208.446 187.337 206.578 187.337C204.71 187.337 204.88 189.886 202.506 190.396C200.132 190.906 191.811 194.472 189.267 192.946C186.723 191.42 185.025 188.19 185.025 188.19V160.495C185.06 160.453 185.094 160.408 185.126 160.359C186.592 158.278 187.402 149.606 187.402 149.606C187.887 149.68 188.375 149.728 188.865 149.748C190.324 149.817 191.984 149.748 192.823 149.706L193.343 149.675C194.809 150.823 196.809 150.99 197.8 150.99C198.148 150.991 198.495 151.017 198.839 151.066C201.706 151.469 202.579 147.656 202.579 147.656L203.712 147.913L206.779 148.607L207.843 148.846C205.934 154.261 210.963 160.051 211.597 160.751L211.663 160.824C211.717 162.691 211.278 164.54 210.391 166.184Z" fill="#1984B1"/>
<path id="Vector 12" opacity="0.3" d="M188.868 149.762C188.868 152.013 188.331 159.475 185.032 160.554V160.495C185.067 160.453 185.101 160.408 185.132 160.359C186.598 158.278 187.409 149.606 187.409 149.606C187.893 149.685 188.379 149.737 188.868 149.762Z" fill="white"/>
<path id="Vector 13" opacity="0.3" d="M211.614 160.762C205.404 160.443 206.138 152.312 206.797 148.621L207.861 148.86C205.951 154.271 210.976 160.061 211.614 160.762Z" fill="white"/>
<path id="Vector 14" d="M247.325 235.079L245.291 239.665C244.71 238.709 244.074 237.788 243.385 236.907C242.396 235.586 241.23 234.408 239.919 233.407C238.5 232.373 237.16 231.235 235.912 230C234.956 229.074 233.909 228.155 233.168 227.77C232.737 227.553 232.325 227.3 231.937 227.014C230.586 225.973 227.931 223.84 227.304 222.338C227.304 222.338 221.873 217.242 219.495 216.222L217.125 213.447L214.401 210.266L221.36 203.3L223.408 206.169L226.454 210.436C227.832 212.15 229.409 213.694 231.151 215.036C232.885 216.295 234.488 217.728 235.933 219.313C238.212 221.793 240.211 224.516 241.894 227.433L246.272 233.591L246.303 233.639L246.996 234.607L247.325 235.079Z" fill="#DB8B8B"/>
<path id="Vector 15" d="M204.211 235.589L201.494 242.044L199.29 239.665L198.382 237.757L197.592 236.095L193.686 233.715L189.874 231.225C189.215 230.795 188.497 230.466 187.742 230.247C184.446 229.282 185.015 227.43 185.015 227.43L185.316 222.622L185.524 219.275L194.535 218.255L194.084 220.804L193.516 224.03C196.913 224.54 199.117 230.146 199.117 230.146C200.458 232.161 201.73 232.997 202.44 233.33C202.625 233.424 202.821 233.495 203.023 233.542L204.211 235.589Z" fill="#DB8B8B"/>
<path id="Vector 16" opacity="0.1" d="M246.304 233.643L246.223 233.598H246.272L246.304 233.643Z" fill="black"/>
<path id="Vector 17" opacity="0.1" d="M247.325 235.079L245.291 239.665C244.71 238.709 244.074 237.788 243.385 236.907C243.697 237.205 245.44 238.794 245.998 237.344C246.212 236.752 246.458 236.174 246.736 235.61C246.908 235.309 246.996 234.967 246.989 234.621L247.325 235.079Z" fill="black"/>
<path id="Vector 18" opacity="0.1" d="M247.159 234.777L246.466 233.809L246.434 233.761L242.057 227.603C240.37 224.688 238.367 221.967 236.086 219.49C234.641 217.905 233.038 216.472 231.303 215.213C229.561 213.871 227.985 212.327 226.607 210.613L223.571 206.363L221.523 203.495L221.225 203.793L223.058 206.363L226.104 210.63C227.484 212.339 229.062 213.879 230.804 215.216C232.539 216.476 234.141 217.909 235.587 219.493C237.864 221.97 239.863 224.689 241.548 227.603L245.932 233.768L245.963 233.816L246.656 234.784L247.003 235.256L245.18 239.363C245.37 239.665 245.478 239.841 245.478 239.841L247.516 235.256L247.159 234.777Z" fill="black"/>
<path id="Vector 19" opacity="0.1" d="M204.211 235.589L201.494 242.044L199.29 239.665L198.382 237.757L200.988 239.491C203.549 237.889 202.562 233.792 202.444 233.334C202.629 233.428 202.824 233.498 203.026 233.546L204.211 235.589Z" fill="black"/>
<path id="Vector 20" d="M202.6 233.466C202.6 233.466 203.872 237.975 201.158 239.668L197.592 237.288C197.592 237.288 196.899 238.988 199.12 241.198C199.946 241.939 200.591 242.861 201.003 243.892C201.416 244.924 201.585 246.036 201.498 247.143C201.498 247.143 201.844 251.219 203.875 250.203C203.875 250.203 207.102 249.509 206.932 243.917C206.932 243.917 205.646 239.252 207.143 237.278C207.185 237.225 207.228 237.173 207.272 237.122C208.97 235.252 206.762 232.366 206.762 232.366C206.762 232.366 202.77 230.75 202.6 233.466Z" fill="#535461"/>
<path id="Vector 21" opacity="0.1" d="M206.589 187.34C204.721 187.34 204.891 189.89 202.517 190.4C200.143 190.91 191.821 194.476 189.277 192.949C186.734 191.423 185.035 188.193 185.035 188.193V187.847C189.277 190.056 194.542 187.847 194.542 187.847C198.292 188.568 204.742 183.646 206.592 182.151V182.237C206.592 182.237 208.453 187.34 206.589 187.34Z" fill="black"/>
<path id="Vector 22" opacity="0.1" d="M185.538 219.278L194.549 218.258L194.098 220.808C191.308 222.105 187.292 222.504 185.344 222.626L185.538 219.278Z" fill="black"/>
<path id="Vector 23" opacity="0.1" d="M223.401 206.176C222.975 209.298 219.488 211.98 217.118 213.461L214.394 210.28L221.353 203.314L223.401 206.176Z" fill="black"/>
<path id="Vector 24" d="M194.535 188.187C194.535 188.187 189.274 190.396 185.028 188.187L184.179 199.741C184.179 199.741 184.349 204.837 183.67 207.72C182.991 210.602 184.179 222.331 184.179 222.331C184.179 222.331 194.705 222.161 196.739 218.255C196.739 218.255 201.151 209.42 200.305 206.363L209.472 208.403L214.907 214.342C214.907 214.342 224.243 209.926 223.394 204.487L210.831 189.713L207.098 182.081C207.098 182.081 198.95 189.036 194.535 188.187Z" fill="#F9EEFF"/>
<path id="Vector 25" opacity="0.3" d="M203.73 147.923C199.948 154.761 194.372 150.976 192.826 149.72L193.346 149.689C194.812 150.837 196.812 151.004 197.803 151.004C198.151 151.005 198.498 151.03 198.843 151.08C201.709 151.482 202.582 147.67 202.582 147.67L203.73 147.923Z" fill="white"/>
<path id="Vector 26" d="M246.4 233.768C246.981 233.735 247.561 233.855 248.082 234.115C248.603 234.375 249.047 234.767 249.37 235.252C249.37 235.252 253.778 238.971 256.152 239.318C256.152 239.318 263.281 242.377 261.244 246.623C259.206 250.869 254.284 246.97 254.284 246.97C254.284 246.97 249.023 242.214 247.325 242.554C247.325 242.554 242.657 239.751 243.513 237.032C243.513 237.032 245.558 239.113 246.175 237.514C246.387 236.922 246.632 236.344 246.909 235.779C247.238 235.127 247.408 234.277 246.4 233.768Z" fill="#535461"/>
<path id="Vector 27" opacity="0.1" d="M193.419 188.228C191.645 188.745 188.075 189.435 185.032 187.85L184.976 188.61C188.667 189.952 192.75 188.488 193.419 188.228Z" fill="black"/>
<path id="Vector 28" opacity="0.1" d="M197.276 187.632C196.392 187.918 195.454 187.998 194.535 187.864C194.535 187.864 194.161 188.02 193.537 188.211C194.622 188.395 195.925 188.128 197.276 187.632Z" fill="black"/>
<path id="Vector 29" opacity="0.1" d="M223.443 205.011C223.28 210.051 214.907 214.012 214.907 214.012L214.789 213.884C217.107 212.611 223.062 208.889 222.375 204.497L209.812 189.713L206.367 182.661C206.828 182.293 207.095 182.068 207.095 182.068L210.831 189.699L223.391 204.48C223.42 204.655 223.437 204.833 223.443 205.011Z" fill="black"/>
<path id="Vector 30" opacity="0.1" d="M199.29 206.363C200.139 209.423 195.724 218.255 195.724 218.255C195.121 219.41 193.779 220.239 192.185 220.832C194.209 220.229 196.015 219.309 196.743 217.915C196.743 217.915 200.659 210.075 200.403 206.61L199.29 206.363Z" fill="black"/>
<path id="Vector 31" opacity="0.3" d="M196.403 162.278C194.012 162.278 192.074 165.053 192.074 168.48C192.074 171.907 194.012 174.682 196.403 174.682C198.794 174.682 200.732 171.907 200.732 168.48C200.732 165.053 198.794 162.278 196.403 162.278ZM196.403 172.133C194.996 172.133 193.852 170.499 193.852 168.48C193.852 166.461 194.992 164.827 196.403 164.827C197.814 164.827 198.954 166.461 198.954 168.48C198.954 170.499 197.81 172.133 196.403 172.133Z" fill="white"/>
</g>
<g id="basketball">
<path id="Vector 32" d="M224.774 118.508C224.774 118.709 224.774 118.908 224.774 119.104C224.774 119.212 224.774 119.32 224.749 119.424C224.604 121.206 224.008 122.921 223.016 124.408C222.951 124.509 222.881 124.606 222.812 124.703C221.867 126.03 220.619 127.111 219.173 127.858C217.726 128.605 216.122 128.996 214.494 128.998C214.262 128.998 214.03 128.998 213.801 128.973C213.572 128.949 213.375 128.939 213.163 128.911C211.694 128.712 210.285 128.196 209.034 127.401C207.782 126.605 206.718 125.547 205.913 124.301C205.858 124.221 205.806 124.134 205.757 124.055V124.037C204.741 122.373 204.204 120.459 204.208 118.508C204.207 117.988 204.244 117.469 204.319 116.954L204.374 116.607C204.655 115.02 205.298 113.519 206.253 112.221C207.207 110.922 208.448 109.862 209.878 109.121L210.252 108.937C211.469 108.375 212.784 108.06 214.123 108.008C215.461 107.956 216.797 108.169 218.053 108.635C218.381 108.757 218.701 108.896 219.014 109.052C221.316 110.2 223.114 112.157 224.063 114.55C224.098 114.63 224.125 114.706 224.153 114.786C224.58 115.979 224.79 117.24 224.774 118.508Z" fill="#DF5A21"/>
<path id="Vector 33" opacity="0.5" d="M224.112 114.786C223.452 114.981 222.768 115.081 222.081 115.081H221.963H221.693C221.526 115.081 221.363 115.06 221.207 115.039C219.86 114.878 218.568 114.402 217.437 113.651C214.411 110.564 211.448 109.51 209.847 109.142L210.221 108.958C211.794 109.357 214.349 110.346 217.007 112.843C217.692 113.492 218.501 113.997 219.384 114.328C219.992 114.553 220.623 114.705 221.266 114.782C221.405 114.782 221.54 114.81 221.675 114.82H221.949C222.652 114.84 223.353 114.751 224.028 114.557C224.053 114.644 224.084 114.72 224.112 114.786Z" fill="#0C0C0C"/>
<path id="Vector 34" opacity="0.5" d="M224.756 119.105C224.756 119.212 224.756 119.32 224.732 119.424C223.845 118.856 222.898 118.391 221.907 118.036L221.647 117.942C219.286 117.148 216.846 116.609 214.369 116.333C208.547 115.591 205.643 116.284 204.26 116.943L204.315 116.596C205.812 115.937 208.762 115.337 214.404 116.055C216.879 116.332 219.318 116.866 221.682 117.648L221.942 117.741C222.927 118.092 223.87 118.549 224.756 119.105Z" fill="#0A0A0A"/>
<path id="Vector 35" opacity="0.5" d="M221.942 117.766C221.942 117.859 221.921 117.953 221.911 118.05C221.851 118.524 221.765 119.02 221.654 119.538C221.569 119.929 221.474 120.305 221.37 120.665C221.342 120.759 221.315 120.853 221.287 120.943C219.97 125.165 217.291 127.305 215.173 128.373C214.724 128.602 214.261 128.804 213.787 128.977L213.149 128.914C213.815 128.707 214.462 128.445 215.083 128.13C217.163 127.09 219.793 124.963 221.076 120.783C221.103 120.7 221.128 120.613 221.152 120.527C221.249 120.191 221.337 119.844 221.415 119.486C221.529 118.966 221.615 118.457 221.675 117.96C221.675 117.866 221.696 117.769 221.706 117.675C221.795 116.815 221.795 115.948 221.706 115.088C221.706 114.997 221.689 114.907 221.675 114.82C221.464 112.952 220.654 111.202 219.367 109.832C218.947 109.391 218.482 108.995 217.981 108.649C218.308 108.771 218.628 108.91 218.941 109.066C219.144 109.244 219.345 109.438 219.544 109.648C220.868 111.074 221.696 112.891 221.904 114.827C221.904 114.914 221.925 115.004 221.935 115.091C222.03 115.98 222.033 116.876 221.942 117.766Z" fill="#070707"/>
<path id="Vector 36" opacity="0.5" d="M222.989 124.412C222.923 124.512 222.854 124.61 222.784 124.707C222.493 123.444 222.027 122.229 221.398 121.096C221.365 121.039 221.324 120.988 221.277 120.943C221.207 120.88 221.129 120.827 221.044 120.787C219.71 120.124 215.725 121.234 212.761 122.837C210.481 124.072 207.497 124.29 205.865 124.304L205.709 124.058V124.041C207.268 124.041 210.332 123.853 212.64 122.605C215.413 121.113 219.537 119.83 221.124 120.523C221.208 120.56 221.288 120.605 221.363 120.659C221.472 120.736 221.564 120.835 221.634 120.95C222.234 122.04 222.69 123.204 222.989 124.412Z" fill="#121111"/>
</g>
</g>
<defs>
<linearGradient id="paint0_linear" x1="348.653" y1="237.965" x2="3.322" y2="49.0012" gradientUnits="userSpaceOnUse">
<stop stop-color="#F13E06" stop-opacity="0.79"/>
<stop offset="0.338542" stop-color="#FF7F57" stop-opacity="0.65"/>
<stop offset="0.588542" stop-color="#EE4280" stop-opacity="0.6"/>
<stop offset="1" stop-color="#645BF8"/>
</linearGradient>
<linearGradient id="paint1_linear" x1="97.6541" y1="265.861" x2="97.6541" y2="123.762" gradientUnits="userSpaceOnUse">
<stop stop-color="#808080" stop-opacity="0.25"/>
<stop offset="0.54" stop-color="#808080" stop-opacity="0.12"/>
<stop offset="1" stop-color="#808080" stop-opacity="0.1"/>
</linearGradient>
<linearGradient id="paint2_linear" x1="13856.4" y1="8860.79" x2="13856.4" y2="8514.6" gradientUnits="userSpaceOnUse">
<stop stop-color="#808080" stop-opacity="0.25"/>
<stop offset="0.54" stop-color="#808080" stop-opacity="0.12"/>
<stop offset="1" stop-color="#808080" stop-opacity="0.1"/>
</linearGradient>
<linearGradient id="paint3_linear" x1="56722.7" y1="42989" x2="56722.7" y2="12397.5" gradientUnits="userSpaceOnUse">
<stop stop-color="#808080" stop-opacity="0.25"/>
<stop offset="0.54" stop-color="#808080" stop-opacity="0.12"/>
<stop offset="1" stop-color="#808080" stop-opacity="0.1"/>
</linearGradient>
<linearGradient id="paint4_linear" x1="53141.2" y1="39373.7" x2="53141.2" y2="12525.7" gradientUnits="userSpaceOnUse">
<stop stop-color="#808080" stop-opacity="0.25"/>
<stop offset="0.54" stop-color="#808080" stop-opacity="0.12"/>
<stop offset="1" stop-color="#808080" stop-opacity="0.1"/>
</linearGradient>
<linearGradient id="paint5_linear" x1="10511" y1="10655.9" x2="10511" y2="7738.32" gradientUnits="userSpaceOnUse">
<stop stop-color="#808080" stop-opacity="0.25"/>
<stop offset="0.54" stop-color="#808080" stop-opacity="0.12"/>
<stop offset="1" stop-color="#808080" stop-opacity="0.1"/>
</linearGradient>
<linearGradient id="paint6_linear" x1="8742.61" y1="8657.92" x2="8742.61" y2="6646.91" gradientUnits="userSpaceOnUse">
<stop stop-color="#808080" stop-opacity="0.25"/>
<stop offset="0.54" stop-color="#808080" stop-opacity="0.12"/>
<stop offset="1" stop-color="#808080" stop-opacity="0.1"/>
</linearGradient>
<linearGradient id="paint7_linear" x1="22509" y1="23751.9" x2="22509" y2="17992.3" gradientUnits="userSpaceOnUse">
<stop stop-color="#808080" stop-opacity="0.25"/>
<stop offset="0.54" stop-color="#808080" stop-opacity="0.12"/>
<stop offset="1" stop-color="#808080" stop-opacity="0.1"/>
</linearGradient>
<linearGradient id="paint8_linear" x1="19131.6" y1="22525.5" x2="19131.6" y2="17350.1" gradientUnits="userSpaceOnUse">
<stop stop-color="#808080" stop-opacity="0.25"/>
<stop offset="0.54" stop-color="#808080" stop-opacity="0.12"/>
<stop offset="1" stop-color="#808080" stop-opacity="0.1"/>
</linearGradient>
<linearGradient id="paint9_linear" x1="9312.34" y1="19264.4" x2="9312.34" y2="14463.8" gradientUnits="userSpaceOnUse">
<stop stop-color="#808080" stop-opacity="0.25"/>
<stop offset="0.54" stop-color="#808080" stop-opacity="0.12"/>
<stop offset="1" stop-color="#808080" stop-opacity="0.1"/>
</linearGradient>
<linearGradient id="paint10_linear" x1="22731.8" y1="4237.74" x2="22731.8" y2="3955.31" gradientUnits="userSpaceOnUse">
<stop stop-color="#808080" stop-opacity="0.25"/>
<stop offset="0.54" stop-color="#808080" stop-opacity="0.12"/>
<stop offset="1" stop-color="#808080" stop-opacity="0.1"/>
</linearGradient>
<linearGradient id="paint11_linear" x1="22731.8" y1="4237.74" x2="22731.8" y2="3955.31" gradientUnits="userSpaceOnUse">
<stop stop-color="#808080" stop-opacity="0.25"/>
<stop offset="0.54" stop-color="#808080" stop-opacity="0.12"/>
<stop offset="1" stop-color="#808080" stop-opacity="0.1"/>
</linearGradient>
<linearGradient id="paint12_linear" x1="22731.8" y1="4206.49" x2="22731.8" y2="3924.05" gradientUnits="userSpaceOnUse">
<stop stop-color="#808080" stop-opacity="0.25"/>
<stop offset="0.54" stop-color="#808080" stop-opacity="0.12"/>
<stop offset="1" stop-color="#808080" stop-opacity="0.1"/>
</linearGradient>
</defs>
</svg>
