<svg width="204" height="270" viewBox="0 0 204 270" fill="none" xmlns="http://www.w3.org/2000/svg">
<g id="undraw Music re a2jk 1">
<g id="Arms">
<path id="Vector" d="M101.789 136.598C101.753 136.07 101.614 135.554 101.378 135.079C101.143 134.605 100.816 134.182 100.418 133.834L94.0061 128.246C93.2532 127.589 92.2826 127.235 91.2832 127.253C90.2838 127.271 89.3264 127.66 88.5978 128.344C88.4998 128.434 88.4071 128.531 88.3213 128.632L71.5819 147.825L69.7501 149.922L41.7433 182.036C41.0429 182.843 40.6908 183.896 40.7643 184.962C40.8377 186.029 41.3306 187.023 42.1351 187.727L48.5406 193.314C49.3472 194.016 50.3991 194.37 51.4659 194.297C52.5327 194.225 53.5273 193.733 54.2317 192.928L69.7501 175.135L83.7361 159.092L100.804 139.525C101.152 139.126 101.419 138.662 101.588 138.16C101.757 137.658 101.825 137.127 101.789 136.598Z" fill="#BCAE7A"/>
<path id="Vector 2" d="M203.319 100.395L199.425 92.8377C198.933 91.8895 198.085 91.1747 197.067 90.8498C196.049 90.5249 194.944 90.6159 193.993 91.1038L162.272 107.457L142.329 117.739L131.011 123.574C130.715 123.727 130.439 123.916 130.193 124.139C129.643 124.617 129.236 125.237 129.018 125.93C128.855 126.435 128.794 126.967 128.838 127.494C128.882 128.023 129.031 128.536 129.276 129.006L130.798 131.961L133.171 136.564C133.413 137.035 133.745 137.454 134.149 137.795C134.554 138.138 135.022 138.396 135.526 138.557C135.927 138.683 136.345 138.746 136.765 138.747C137.405 138.748 138.035 138.593 138.603 138.298L152.047 131.368L169.628 122.301L201.586 105.827C202.534 105.335 203.249 104.487 203.573 103.469C203.898 102.451 203.807 101.346 203.319 100.395Z" fill="#BCAE7A"/>
</g>
<g id="Legs">
<path id="Vector 3" d="M115.815 193.159C115.785 192.375 115.526 191.618 115.071 190.98C114.615 190.342 113.983 189.852 113.252 189.57C112.787 189.387 112.293 189.293 111.794 189.293H103.292C102.223 189.295 101.198 189.72 100.442 190.476C99.6863 191.232 99.2612 192.257 99.26 193.326V265.335C99.2612 266.404 99.6863 267.429 100.442 268.185C101.198 268.941 102.223 269.366 103.292 269.367H111.794C112.863 269.366 113.888 268.941 114.644 268.185C115.4 267.429 115.825 266.404 115.827 265.335V193.326C115.828 193.27 115.825 193.214 115.815 193.159Z" fill="#BCAE7A"/>
<path id="Vector 4" d="M154.443 225.312C154.327 225.038 154.18 224.777 154.006 224.535L139.512 204.259L127.571 187.56H107.203L108.644 189.57L111.207 193.159L119.15 204.264L136.172 228.072L140.532 234.166C141.153 235.035 142.095 235.623 143.149 235.798C144.203 235.975 145.284 235.725 146.154 235.105L153.072 230.157C153.816 229.624 154.356 228.855 154.605 227.975C154.855 227.095 154.797 226.156 154.443 225.312ZM112.797 166.892C112.173 166.023 111.23 165.437 110.175 165.262C109.12 165.086 108.039 165.338 107.168 165.959L100.251 170.901C99.3816 171.524 98.7952 172.467 98.6206 173.522C98.4455 174.577 98.6961 175.658 99.3176 176.529L101.852 180.071H122.22L112.797 166.892Z" fill="#BCB27A"/>
<path id="Vector 5" d="M154.575 225.508C154.535 225.441 154.491 225.376 154.443 225.312C153.908 224.586 153.204 224.001 152.393 223.607L144.783 219.823C142.79 218.832 140.648 219.074 140.008 220.364L136.172 228.072L120.394 259.765C119.749 261.055 120.849 262.91 122.837 263.901L130.446 267.691C131.201 268.077 132.035 268.285 132.883 268.301C133.954 268.301 134.846 267.904 135.221 267.149L154.835 227.749C154.99 227.385 155.047 226.988 155.002 226.595C154.956 226.202 154.809 225.827 154.575 225.508Z" fill="#BCAE7A"/>
</g>
<g id="Face">
<path id="Vector 6" d="M114.923 100.981C131.949 100.981 145.752 87.1787 145.752 70.1525C145.752 53.1263 131.949 39.3241 114.923 39.3241C97.8971 39.3241 84.0949 53.1263 84.0949 70.1525C84.0949 87.1787 97.8971 100.981 114.923 100.981Z" fill="#BCAE7A"/>
<path id="Vector 7" d="M110.819 81.5786L110.787 80.4265C112.93 80.3666 114.82 80.2324 116.24 79.195C116.642 78.8845 116.973 78.4905 117.21 78.0406C117.446 77.5902 117.583 77.0942 117.612 76.5867C117.636 76.2763 117.59 75.9646 117.475 75.6755C117.359 75.3863 117.179 75.1277 116.948 74.9191C116.005 74.1236 114.488 74.3811 113.383 74.888L112.43 75.3247L114.257 61.9666L115.399 62.1233L113.844 73.486C115.346 73.0447 116.738 73.2348 117.691 74.0395C118.057 74.3592 118.344 74.759 118.53 75.2077C118.716 75.6564 118.795 76.1426 118.763 76.6271C118.729 77.3097 118.547 77.9761 118.228 78.5804C117.91 79.1846 117.463 79.7123 116.919 80.1253C115.095 81.4588 112.724 81.525 110.819 81.5786Z" fill="#2F2E41"/>
<path id="Vector 8" d="M127.249 63.1031H121.044V64.2551H127.249V63.1031Z" fill="#2F2E41"/>
<path id="Vector 9" d="M107.664 63.1031H101.459V64.2551H107.664V63.1031Z" fill="#2F2E41"/>
<path id="Vector 10" d="M101.74 46.146C100.52 47.8124 101.122 50.0578 102.408 51.495C104.081 53.3642 106.751 53.4822 109.068 53.1349C111.668 52.7455 114.426 51.5272 117.059 52.3486C119.303 53.0485 120.904 55.0836 123.235 55.5945C125.302 56.0479 127.774 55.4477 128.499 53.2444C128.847 52.1856 127.179 51.7317 126.833 52.7847C126.364 54.2103 124.339 54.1821 123.18 53.7875C121.321 53.1545 119.889 51.6153 118.062 50.8798C115.908 50.0128 113.571 50.4045 111.378 50.8982C109.311 51.3636 106.932 52.0537 104.873 51.1845C103.349 50.5411 102.137 48.5146 103.233 47.0181C103.891 46.12 102.392 45.2572 101.74 46.146Z" fill="#2F2E41"/>
</g>
<g id="Body">
<path id="Vector 11" d="M169.8 122.664L169.628 122.301L162.818 108.275C162.337 107.322 161.499 106.597 160.486 106.259C159.98 106.09 159.445 106.024 158.912 106.065C158.38 106.105 157.862 106.252 157.387 106.495L140.774 116.564L129.715 123.269C129.63 123.312 129.553 123.366 129.484 123.43C128.851 124.001 128.51 125.464 128.234 126.662C128.136 127.077 128.056 127.44 127.975 127.676C127.946 127.774 127.912 127.877 127.889 127.981C127.658 128.913 127.768 129.895 128.2 130.752L129.559 133.465L132.012 138.35C132.35 139.019 132.867 139.583 133.506 139.976C134.145 140.37 134.88 140.578 135.63 140.579C136.247 140.578 136.854 140.432 137.405 140.153L152.877 134.047L168.003 128.073C168.957 127.593 169.682 126.754 170.019 125.74C170.356 124.727 170.277 123.621 169.8 122.664Z" fill="#69343E"/>
<path id="Vector 12" d="M109.006 127.123L107.728 125.867L107.019 125.159L102.952 121.155C102.269 120.482 101.368 120.075 100.411 120.003C100.303 119.997 100.198 119.992 100.089 119.992C99.847 119.997 99.4783 119.963 99.0463 119.928C97.6817 119.813 95.9767 119.663 95.3828 120.274L87.5091 127.082L70.867 141.466C70.2634 142.075 69.8717 142.863 69.7496 143.712C69.7173 143.916 69.7017 144.123 69.7035 144.329C69.7046 144.512 69.7202 144.695 69.7496 144.876C69.8722 145.749 70.2789 146.557 70.9074 147.174L71.5819 147.825L82.4458 158.24C83.2073 158.988 84.2349 159.405 85.3029 159.398C85.7689 159.397 86.2314 159.314 86.6681 159.15C87.2308 158.942 87.7406 158.611 88.1594 158.182L107.094 135.193L108.332 133.689L109.047 132.825C109.796 132.063 110.213 131.035 110.206 129.966C110.198 128.896 109.767 127.875 109.006 127.123Z" fill="#69343E"/>
<path id="Vector 13" d="M145.388 135.199C145.152 134.289 144.875 133.396 144.559 132.52C142.641 127.167 139.277 122.449 134.841 118.891C134.34 118.482 133.821 118.091 133.285 117.716C130.627 115.841 127.688 114.401 124.576 113.45C124.826 112.561 124.821 111.62 124.564 110.733C124.216 109.615 123.517 108.64 122.569 107.952C121.622 107.264 120.477 106.901 119.307 106.916H111.796C110.622 106.9 109.475 107.264 108.525 107.953C107.575 108.642 106.873 109.619 106.523 110.739C106.267 111.623 106.263 112.561 106.511 113.448C100.205 115.384 94.6869 119.291 90.7659 124.596C86.8449 129.9 84.728 136.321 84.7269 142.917V202.636C84.7269 206.712 86.2758 210.025 88.183 210.025H142.906C142.929 210.025 158.498 210.025 158.521 210.013C160.4 209.951 161.915 206.662 161.915 202.636C161.915 188.849 158.869 169.472 152.994 157L146.362 142.917C146.363 140.314 146.036 137.721 145.388 135.199Z" fill="#69343E"/>
</g>
<g id="Headphones">
<path id="Vector 14" d="M112.069 23.9678C108.65 10.2646 95.3989 -0.256968 81.1998 0.00477876C74.1706 0.202011 67.3919 2.65998 61.8695 7.01394C59.0856 9.18061 56.6889 11.803 54.7807 14.7699C52.6408 18.1096 51.2971 21.8797 50.248 25.6849C48.1283 33.3738 47.1292 42.0741 41.75 48.3528C39.5195 50.8948 36.7693 52.9282 33.6853 54.3152C30.6014 55.7029 27.2556 56.412 23.8739 56.3953C20.467 56.3417 17.1186 55.5007 14.091 53.9374C11.0634 52.374 8.43887 50.131 6.42301 47.3839C2.37393 41.9859 0.380479 34.5195 2.71973 28.0046C3.86763 24.8077 6.33597 21.7875 9.86615 21.2541C11.4761 21.0364 13.1147 21.2939 14.5801 21.9955C16.0455 22.6971 17.2738 23.8117 18.1138 25.2022C19.7015 27.9879 19.1937 31.705 17.2047 34.1618C15.1098 36.7499 11.6089 37.4664 8.52113 36.4267C7.06983 35.9336 5.79364 35.0281 4.84849 33.8213C4.158 32.9492 2.93418 34.1716 3.61756 35.035C4.71276 36.3484 6.12681 37.3587 7.72437 37.9687C9.32186 38.5793 11.0493 38.7694 12.7413 38.5206C14.4297 38.2654 16.0156 37.5511 17.3259 36.4561C18.6363 35.3611 19.6209 33.9273 20.1723 32.311C20.7767 30.7091 20.9353 28.9723 20.6311 27.2875C20.3269 25.602 19.5713 24.0306 18.4448 22.7403C17.2709 21.4644 15.7892 20.5105 14.1412 19.9702C12.4933 19.4304 10.7344 19.3227 9.03281 19.6568C5.38767 20.4287 2.74048 23.4269 1.36665 26.7489C0.012938 30.1999 -0.344209 33.9625 0.335896 37.6064C0.96351 41.1231 2.32474 44.4686 4.33098 47.4242C6.33724 50.3798 8.94347 52.8798 11.9801 54.7611C18.1254 58.5346 25.796 59.0536 32.5377 56.6303C35.9063 55.4385 38.9829 53.5439 41.5633 51.0722C44.3361 48.2595 46.4583 44.8724 47.7803 41.1501C50.8199 33.1917 51.2652 24.2858 55.566 16.8049C59.3171 10.4532 65.2347 5.66799 72.2311 3.32857C79.186 0.925502 86.7994 1.29099 93.4928 4.34923C100.148 7.4315 105.509 12.7542 108.639 19.3872C109.384 21.0036 109.974 22.6873 110.399 24.4154C110.669 25.4966 112.338 25.0479 112.069 23.9678Z" fill="#2F2E41"/>
<path id="Vector 15" d="M83.8628 77.2504C80.0512 77.2504 76.9505 72.5989 76.9505 66.8819C76.9505 61.1648 80.0512 56.5134 83.8628 56.5134C87.6738 56.5134 90.7751 61.1648 90.7751 66.8819C90.7751 72.5989 87.6738 77.2504 83.8628 77.2504Z" fill="#3F3D56"/>
<path id="Vector 16" d="M145.498 77.2504C141.686 77.2504 138.585 72.5989 138.585 66.8819C138.585 61.1648 141.686 56.5134 145.498 56.5134C149.309 56.5134 152.41 61.1648 152.41 66.8819C152.41 72.5989 149.309 77.2504 145.498 77.2504Z" fill="#3F3D56"/>
<path id="Vector 17" d="M147.437 75.6288C147.3 75.6288 147.165 75.596 147.043 75.5332C146.921 75.4704 146.816 75.3794 146.736 75.2683C146.656 75.1571 146.603 75.0281 146.583 74.8921C146.563 74.7567 146.575 74.6179 146.619 74.4883C148.27 69.5777 148.767 64.352 148.07 59.2178C147.374 54.0843 145.503 49.18 142.603 44.8868C139.703 40.5931 135.852 37.0264 131.349 34.4636C126.847 31.9003 121.814 30.4101 116.642 30.1083C111.47 29.8064 106.297 30.7016 101.528 32.7234C96.7578 34.7453 92.5182 37.8403 89.1387 41.7671C85.7591 45.6944 83.3306 50.3476 82.0414 55.3659C80.7528 60.3837 80.6382 65.6313 81.7073 70.7009C81.754 70.925 81.7102 71.1583 81.5852 71.3501C81.4596 71.5414 81.2638 71.6756 81.0397 71.7228C80.8162 71.77 80.5823 71.7263 80.3905 71.6018C80.1987 71.4768 80.0645 71.2816 80.0167 71.0575C78.8917 65.7275 79.0115 60.2103 80.3658 54.9339C81.7206 49.6575 84.2735 44.7647 87.8265 40.6358C91.38 36.5068 95.8373 33.2528 100.852 31.1267C105.868 29.0006 111.306 28.0599 116.744 28.3773C122.182 28.6947 127.473 30.2615 132.207 32.9567C136.941 35.652 140.99 39.4025 144.038 43.9168C147.087 48.4311 149.054 53.5877 149.785 58.9857C150.516 64.3836 149.993 69.8778 148.256 75.0407C148.198 75.2118 148.088 75.361 147.941 75.4664C147.794 75.5718 147.618 75.6288 147.437 75.6288Z" fill="#3F3D56"/>
</g>
<path id="Vector 18" d="M184.656 269.355H60.2342C60.0815 269.355 59.9346 269.295 59.8269 269.187C59.7186 269.079 59.6581 268.932 59.6581 268.779C59.6581 268.627 59.7186 268.481 59.8269 268.372C59.9346 268.264 60.0815 268.203 60.2342 268.203H184.656C184.809 268.203 184.955 268.264 185.063 268.372C185.171 268.481 185.232 268.627 185.232 268.779C185.232 268.932 185.171 269.079 185.063 269.187C184.955 269.295 184.809 269.355 184.656 269.355Z" fill="#3F3D56"/>
</g>
</svg>
