<svg width="518" height="267" viewBox="0 0 518 267" fill="none" xmlns="http://www.w3.org/2000/svg">
<g id="surfer 1">
<g id="mountains">
<path id="Vector" d="M355.182 77.2989C354.676 77.2989 354.18 77.1548 353.752 76.883C353.325 76.6117 352.984 76.2238 352.769 75.765C352.554 75.3066 352.475 74.7961 352.54 74.2942C352.605 73.7919 352.813 73.3189 353.137 72.9301C358.07 67.0334 366.316 56.9189 367.414 53.9865C368.988 49.7504 425.424 34.9194 425.424 34.9194C425.424 34.9194 450.01 25.029 453.479 19.3656C455.533 16.0216 465.651 7.97479 473.567 1.98199C479.685 -2.66581 478.66 4.26929 486.078 6.24559C491.871 1.45139 506.972 2.58589 506.972 16.4104L517.909 71.6904C518.046 72.3715 518.027 73.0742 517.858 73.7476C517.689 74.4214 517.373 75.0491 516.934 75.5857C516.49 76.1227 515.936 76.555 515.309 76.8519C514.682 77.1493 513.996 77.3034 513.3 77.3034L355.182 77.2989Z" fill="#6C63FF"/>
<path id="Vector 2" opacity="0.7" d="M355.182 77.2989C354.676 77.2989 354.18 77.1548 353.752 76.883C353.325 76.6117 352.984 76.2238 352.769 75.765C352.554 75.3066 352.475 74.7961 352.54 74.2942C352.605 73.7919 352.813 73.3189 353.137 72.9301C358.07 67.0334 366.316 56.9189 367.414 53.9865C368.988 49.7504 425.424 34.9194 425.424 34.9194C425.424 34.9194 450.01 25.029 453.479 19.3656C455.533 16.0216 465.651 7.97479 473.567 1.98199C479.685 -2.66581 478.66 4.26929 486.078 6.24559C491.871 1.45139 506.972 2.58589 506.972 16.4104L517.909 71.6904C518.046 72.3715 518.027 73.0742 517.858 73.7476C517.689 74.4214 517.373 75.0491 516.934 75.5857C516.49 76.1227 515.936 76.555 515.309 76.8519C514.682 77.1493 513.996 77.3034 513.3 77.3034L355.182 77.2989Z" fill="white"/>
<path id="Vector 3" d="M7.77917 76.0221C7.77917 76.0221 40.5752 41.4287 76.3089 42.8285C112.043 44.2283 178.614 29.6169 178.614 29.6169C178.614 29.6169 231.965 19.3515 244.691 24.7313C257.417 30.111 276.997 38.5924 290.707 38.5924C304.417 38.5924 316.648 77.1474 316.648 77.1474C316.648 77.1474 7.77917 73.195 7.77917 76.0221Z" fill="#6C63FF"/>
<path id="Vector 4" opacity="0.7" d="M7.77917 76.0221C7.77917 76.0221 40.5752 41.4287 76.3089 42.8285C112.043 44.2283 178.614 29.6169 178.614 29.6169C178.614 29.6169 231.965 19.3515 244.691 24.7313C257.417 30.111 276.997 38.5924 290.707 38.5924C304.417 38.5924 316.648 77.1474 316.648 77.1474C316.648 77.1474 7.77917 73.195 7.77917 76.0221Z" fill="white"/>
</g>
<g id="ocean">
<path id="Vector 5" opacity="0.1" d="M349.444 77.2989H370.365C378.071 77.2989 348.717 96.512 342.242 101.133C334.81 106.426 324.738 108.402 315.216 110.621C301.859 113.732 288.715 117.691 275.862 122.473C273.538 123.343 271.149 124.28 269.529 125.882C267.726 127.666 267.118 130.022 266.033 132.153C261.787 140.47 250.718 144.807 240.939 149.13C231.16 153.453 220.804 159.835 220.347 168.801C220.155 172.369 222.127 176.363 226.296 177.598C231.329 179.103 238.495 176.431 241.593 179.981C242.829 181.404 242.746 183.302 242.426 185.013C240.367 195.933 230.986 204.858 222.365 213.44C218.224 217.557 214.38 224.136 219.45 227.521C223.5 230.224 230.807 228.541 233.786 232.031C234.811 233.239 234.994 234.776 235.004 236.236C235.068 246.716 227.202 256.977 215.542 261.607C208.001 264.607 199.412 265.307 191.024 265.783C180.417 266.392 169.787 266.726 159.152 266.698C153.625 266.698 148.069 266.552 142.615 265.82C137.16 265.088 131.861 263.757 126.599 262.425L39.0605 240.389C36.2783 239.689 33.4046 238.948 31.2265 237.384C28.7966 235.632 27.5337 233.061 26.7649 230.522C22.6465 216.743 30.5721 202.159 27.3735 188.206C23.882 172.973 7.87529 161.431 2.41158 146.577C-1.2858 136.513 0.123596 125.767 1.59249 115.346L6.98298 76.3245C107.069 72.8386 207.735 71.5531 307.762 76.0409C332.353 77.125 325.027 79.8927 349.444 77.2989Z" fill="#0047FF"/>
</g>
<g id="left leg">
<path id="Vector 6" d="M308.512 250.289C308.524 250.434 308.506 250.581 308.458 250.719C308.411 250.857 308.335 250.984 308.237 251.091C308.138 251.199 308.017 251.284 307.884 251.343C307.75 251.402 307.606 251.432 307.46 251.432C303.044 251.432 287.092 251.089 281.605 246.442C275.199 241.025 287.554 242.947 287.554 242.947C295.594 241.007 296.706 238.244 296.834 237.146C296.832 237.134 296.832 237.121 296.834 237.109C296.858 236.958 296.858 236.803 296.834 236.652L297.154 236.464L298.367 235.746L307.469 238.491L307.656 240.646L308.512 250.289Z" fill="#EC8C9C"/>
<path id="Vector 7" opacity="0.1" d="M307.656 240.673H307.432L296.834 237.141C296.833 237.131 296.833 237.12 296.834 237.109C296.939 236.903 297.036 236.693 297.136 236.483L298.349 235.764L307.45 238.509L307.656 240.673Z" fill="black"/>
<path id="Vector 8" d="M342.21 143.823L343.779 145.941C343.779 145.941 343.564 148.531 344.575 150.104C345.587 151.678 349.197 164.309 332.22 167.918C332.22 167.918 322.565 184.387 315.815 190.915L313.225 195.782C313.225 195.782 312.672 201.509 313.225 204.254C313.779 206.999 314.95 215.558 310.869 221.286C310.869 221.286 307.336 234.863 307.885 240.202H307.428L296.83 236.67C298.12 234.141 298.811 231.348 298.848 228.509L298.948 221.052V193.797C298.948 190.69 299.437 187.602 300.399 184.647C300.909 183.093 301.18 181.47 301.204 179.835C301.25 176.422 301.662 169.853 303.95 164.784C305.075 162.264 306.187 159.752 307.153 157.149C308.764 152.831 311.084 147.167 312.548 145.937L314.836 141.623L327.031 142.799L342.21 143.823Z" fill="#565388"/>
</g>
<g id="body">
<path id="Vector 9" d="M331.3 88.534C331.3 88.534 316.46 97.752 317.714 95.163C318.24 94.074 317.508 91.558 316.474 89.001C315.788 87.281 314.96 85.547 314.296 84.225C313.633 82.903 313.083 81.8964 313.083 81.8964C313.083 81.8964 328.395 72.6419 327.841 76.1735C327.748 77.3281 327.855 78.4906 328.157 79.6091C328.372 80.524 328.651 81.5258 328.967 82.491C329.987 85.634 331.3 88.534 331.3 88.534Z" fill="#EC8C9C"/>
<path id="Vector 10" opacity="0.1" d="M326.889 78.5157C324.825 81.718 322.487 84.966 318.373 84.966C316.98 84.968 315.599 84.717 314.296 84.225C313.605 82.852 313.083 81.8964 313.083 81.8964C313.083 81.8964 328.395 72.6419 327.841 76.1735C327.708 77.0564 326.587 77.1845 326.889 78.5157Z" fill="black"/>
<path id="Vector 11" d="M329.992 72.8798C329.992 75.9603 328.768 78.9146 326.588 81.0926C324.41 83.271 321.455 84.495 318.373 84.495C315.292 84.495 312.337 83.271 310.158 81.0926C307.979 78.9146 306.755 75.9603 306.755 72.8798C306.752 71.7855 306.906 70.6963 307.212 69.6455C307.994 66.9606 309.717 64.6477 312.066 63.1312C314.416 61.6147 317.234 60.9962 320.003 61.3892C322.772 61.7826 325.306 63.1609 327.14 65.2717C328.974 67.3824 329.985 70.0837 329.987 72.8798H329.992Z" fill="#EC8C9C"/>
<path id="Vector 12" opacity="0.1" d="M331.3 88.534C331.3 88.534 316.46 97.752 317.714 95.163C318.241 94.074 317.508 91.558 316.474 89.001C319.412 84.12 325.924 82.83 328.967 82.491C329.987 85.634 331.3 88.534 331.3 88.534Z" fill="black"/>
<path id="Vector 13" opacity="0.1" d="M330.591 83.786C330.591 83.786 320.982 83.246 317.435 90.465C317.56 91.362 317.503 92.275 317.267 93.15C317.032 94.025 316.622 94.844 316.062 95.556C316.062 95.556 307.272 102.148 309.94 118.237C311.538 127.705 312.407 137.282 312.539 146.884C312.539 146.884 314.827 144.766 319.764 146.884C324.702 149.002 343.784 146.884 343.784 146.884C343.784 146.884 341.743 127.501 343.472 123.969C345.202 120.438 344.168 101.938 341.972 98.091C340.494 95.506 336.435 92.052 333.465 89.353C331.866 87.906 330.846 85.928 330.596 83.786H330.591Z" fill="black"/>
<path id="Vector 14" d="M330.591 82.843C330.591 82.843 319.609 82.999 316.067 90.218C316.067 90.218 317.952 92.34 316.067 94.614C316.067 94.614 307.277 101.206 309.944 117.295C311.541 126.763 312.409 136.34 312.539 145.941C312.539 145.941 314.827 143.823 319.764 145.941C324.702 148.059 343.784 145.941 343.784 145.941C343.784 145.941 341.743 126.559 343.472 123.027C345.202 119.495 344.168 100.995 341.972 97.148C340.493 94.568 336.435 91.11 333.465 88.411C331.866 86.963 330.846 84.985 330.596 82.843H330.591Z" fill="#DFE5EE"/>
<path id="Vector 15" opacity="0.1" d="M329.992 72.8798C329.994 74.6241 329.602 76.346 328.845 77.9173C328.088 79.4892 326.987 80.8694 325.622 81.9558L325.036 81.7591C324.755 81.6814 324.492 81.5528 324.258 81.3794C323.991 81.1237 323.799 80.7994 323.704 80.4416C323.279 79.179 323.151 77.8249 322.675 76.5715C322.199 75.318 321.252 74.1241 319.929 73.9045C319.783 73.8679 319.628 73.8857 319.494 73.9548C319.351 74.0806 319.258 74.2549 319.234 74.4443C319.067 75.0147 318.771 75.5385 318.368 75.9759C317.966 76.4132 317.468 76.7517 316.913 76.9649C316.223 77.2211 314.996 77.4224 314.337 76.9649C313.765 76.5669 313.784 75.8899 313.646 75.2631C313.276 73.5385 312.429 71.7956 310.754 71.0133C310.182 70.7823 309.595 70.5897 308.997 70.4369C308.375 70.2548 307.776 70.0019 307.212 69.6821C307.994 66.9972 309.717 64.6843 312.066 63.1678C314.416 61.6513 317.234 61.0328 320.003 61.4258C322.772 61.8192 325.306 63.1975 327.14 65.3083C328.974 67.419 329.985 70.1203 329.987 72.9164L329.992 72.8798Z" fill="black"/>
<path id="Vector 16" d="M310.759 70.5055C310.185 70.2732 309.597 70.0806 308.997 69.9291C307.622 69.5613 306.388 68.7942 305.451 67.7242C304.99 67.1844 304.674 66.5366 304.531 65.8412C304.389 65.1464 304.425 64.4263 304.636 63.7488C305.094 62.4999 306.27 61.5667 306.549 60.2629C306.596 59.7442 306.692 59.2309 306.837 58.7304C307.048 58.2501 307.661 57.8795 308.096 58.1723C308.123 58.7711 308.005 59.3672 307.752 59.9107C308.492 59.5072 309.121 58.9276 309.583 58.2226C309.796 57.815 310.067 57.4404 310.388 57.111C310.55 56.9486 310.761 56.8452 310.988 56.8173C311.215 56.789 311.446 56.8374 311.642 56.9555C311.582 57.1888 311.607 57.4358 311.712 57.6517C311.818 57.8681 311.998 58.0397 312.219 58.1357C312.669 58.3109 313.157 58.3741 313.637 58.3187C314.932 58.316 316.222 58.1719 317.485 57.8887C318.703 57.5685 319.879 56.9738 321.146 56.9738C322.414 56.9738 323.819 57.8567 323.759 59.1193C325.054 58.6618 326.473 59.1696 327.754 59.6774C329.035 60.1852 330.344 60.7158 331.378 61.6262C332.412 62.5365 333.14 63.9135 332.893 65.2859C332.824 65.5114 332.816 65.7516 332.87 65.9812C332.971 66.1757 333.117 66.3431 333.295 66.4707C334.252 67.3536 334.266 68.8358 334.211 70.1304C334.224 70.5289 334.151 70.925 333.996 71.2924C333.808 71.6629 333.456 71.942 333.337 72.34C333.062 73.2549 334.183 74.0509 334.293 75.0161C334.288 75.6173 334.084 76.1996 333.712 76.6722L330.802 81.3566C330.643 81.6453 330.437 81.9051 330.193 82.125C329.442 82.72 328.363 82.436 327.447 82.125L325.04 81.3063C324.762 81.2267 324.5 81.0981 324.267 80.9266C323.999 80.6654 323.808 80.3364 323.713 79.9751C323.283 78.7079 323.16 77.3538 322.688 76.1003C322.217 74.8469 321.265 73.6529 319.943 73.4379C319.797 73.3976 319.642 73.4136 319.508 73.4836C319.364 73.6094 319.271 73.7837 319.247 73.9731C319.081 74.5436 318.786 75.0683 318.383 75.5056C317.981 75.9425 317.482 76.281 316.927 76.4938C316.236 76.7499 315.01 76.9512 314.351 76.4938C313.779 76.0912 313.797 75.4141 313.66 74.7828C313.28 73.0308 312.434 71.2924 310.759 70.5055Z" fill="#603456"/>
<path id="Vector 17" opacity="0.1" d="M316.964 92.642C316.964 92.642 328.756 89.133 331.3 86.389L316.964 92.642Z" fill="black"/>
</g>
<g id="arm">
<path id="Vector 18" opacity="0.1" d="M336.032 104.417C336.032 104.417 338.709 115.108 337.611 118.946L336.032 104.417Z" fill="black"/>
<g id="arm 2">
<path id="Vector 19" d="M329.795 152.067L328.555 154.656L329.566 159.633C330.369 163.717 332.211 167.525 334.915 170.69C337.62 173.815 340.864 175.951 342.53 170.978C344.589 164.798 342.987 161.692 341.66 160.287C340.518 159.051 339.482 157.722 338.562 156.312C337.249 154.4 335.419 152.135 333.451 151.349C329.841 149.976 329.795 152.067 329.795 152.067Z" fill="#EC8C9C"/>
<path id="Vector 20" opacity="0.1" d="M322.899 119.884L322.871 123.613L323.521 130.639C324.811 133.429 325.82 136.341 326.532 139.331C327.905 144.821 328.074 155.58 328.074 155.58C328.074 155.58 335.346 153.242 336.769 153.947C336.769 153.947 337.19 137.936 335.698 132.904C334.206 127.872 334.833 121.064 334.833 121.064L322.899 119.884Z" fill="black"/>
<path id="Vector 21" d="M323.37 118.946L322.606 123.809L323.979 129.697C325.269 132.487 326.278 135.399 326.99 138.389C328.363 143.878 328.532 154.638 328.532 154.638C328.532 154.638 335.281 152.808 336.695 153.535C336.695 153.535 337.638 136.98 336.146 131.957C334.655 126.934 335.282 120.113 335.282 120.113L323.37 118.946Z" fill="#565388"/>
<path id="Vector 22" opacity="0.1" d="M321.718 96.563C321.718 96.563 313.87 95.401 318.346 114.001C318.346 114.001 322.034 123.416 322.112 124.752C322.112 124.752 329.099 119.573 334.673 123.498C334.673 123.498 335.771 112.116 332.948 106.778C332.948 106.778 331.04 93.79 321.718 96.563Z" fill="black"/>
<path id="Vector 23" d="M322.19 95.62C322.19 95.62 314.342 94.458 318.817 113.059C318.817 113.059 322.505 122.478 322.583 123.809C322.583 123.809 329.571 118.631 335.144 122.556C335.144 122.556 336.242 111.174 333.419 105.835C333.419 105.835 331.511 92.848 322.19 95.62Z" fill="#DFE5EE"/>
<path id="Vector 24" d="M321.801 113.923C321.801 113.923 324.391 112.194 324.784 111.096C325.178 109.998 327.306 111.961 326.395 112.903C325.484 113.846 321.801 113.923 321.801 113.923Z" fill="#565388"/>
</g>
</g>
<g id="right leg">
<path id="Vector 25" d="M367.647 230.627L367.492 232.983L367.57 244.086C367.57 244.086 357.008 253.235 368.196 250.49L372.255 250.083C372.691 250.038 373.107 249.879 373.461 249.622C373.816 249.365 374.096 249.019 374.273 248.619L382.052 230.915C382.201 230.578 382.257 230.207 382.215 229.84C382.173 229.474 382.035 229.125 381.815 228.829C380.538 227.114 377.737 223.902 375.065 224.511C371.455 225.33 367.647 230.627 367.647 230.627Z" fill="#EC8C9C"/>
<path id="Vector 26" d="M376.36 224.744L367.492 232.978L366.27 230.847L365.318 229.181L361.602 222.713C355.558 214.318 336.558 204.661 336.558 204.661C332.522 202.996 330.98 201.336 330.394 200.352C329.937 199.579 329.479 198.797 328.953 198.065C327.559 195.958 326.431 193.687 325.594 191.303C324.816 189.133 324.176 186.916 323.677 184.666C323.219 182.703 322.963 181.006 322.794 179.83C322.647 178.778 322.588 178.156 322.588 178.156L323.96 173.179L328.253 157.511L344.269 156.728C344.269 156.728 344.346 165.777 344.333 174.039C344.333 175.594 344.333 177.122 344.333 178.559C344.333 180.388 344.301 182.049 344.278 183.435C344.237 185.155 344.186 186.436 344.122 187.022C344.033 187.735 344.001 188.453 344.026 189.172C344.141 191.884 345.312 194.524 349.517 195.887C354.816 197.616 364.394 206.802 365.259 211.038C365.826 213.824 370.466 218.884 373.573 222.018C374.314 222.763 374.946 223.39 375.454 223.875C376.003 224.415 376.36 224.744 376.36 224.744Z" fill="#565388"/>
<path id="Vector 27" opacity="0.1" d="M376.36 224.744L367.492 232.978L366.27 230.847L365.318 229.181L361.602 222.713C355.558 214.318 336.558 204.661 336.558 204.661C332.522 202.996 330.98 201.336 330.394 200.352C329.937 199.579 329.479 198.797 328.953 198.065C327.559 195.958 326.431 193.687 325.594 191.303C324.816 189.133 324.176 186.916 323.677 184.666C323.219 182.703 322.963 181.006 322.794 179.83C322.647 178.778 322.588 178.156 322.588 178.156L323.96 173.179L328.253 157.511L344.269 156.728C344.269 156.728 344.346 165.777 344.333 174.039C344.333 175.594 344.333 177.122 344.333 178.559C344.333 180.388 344.301 182.049 344.278 183.435C344.237 185.155 344.186 186.436 344.122 187.022C344.033 187.735 344.001 188.453 344.026 189.172C344.141 191.884 345.312 194.524 349.517 195.887C354.816 197.616 364.394 206.802 365.259 211.038C365.826 213.824 370.466 218.884 373.573 222.018C374.314 222.763 374.946 223.39 375.454 223.875C376.003 224.415 376.36 224.744 376.36 224.744Z" fill="black"/>
<path id="Vector 28" d="M375.408 223.843L366.256 230.851L365.304 229.186L373.514 221.986C374.269 222.713 374.919 223.372 375.408 223.843Z" fill="#535461"/>
<path id="Vector 29" opacity="0.1" d="M367.492 232.983V233.482L376.964 224.648L376.36 224.744L367.492 232.983Z" fill="black"/>
</g>
<g id="surfboard">
<path id="Vector 30" d="M380.789 250.806C380.082 250.806 379.377 250.748 378.68 250.632C376.197 250.195 373.75 249.574 371.358 248.775C368.476 247.823 367.414 247.128 367.583 246.281C367.743 245.504 368.041 244.04 390.372 244.712C390.555 244.438 390.728 244.159 390.884 243.88C392.806 240.435 393.47 235.147 389.543 230.65C381.448 221.368 372.878 223.788 372.791 223.82L372.521 222.905C372.612 222.878 381.737 220.256 390.253 230.014C391.98 231.94 393.052 234.365 393.313 236.939C393.574 239.513 393.01 242.104 391.703 244.337C391.63 244.474 391.548 244.612 391.47 244.744C396.709 244.914 403.106 245.202 410.918 245.618C431.844 246.757 452.943 248.427 453.154 248.445C453.364 248.464 467.564 249.79 473.856 240.668C479.237 232.855 477.425 219.858 468.474 202.04L469.316 201.615C478.436 219.771 480.225 233.088 474.629 241.204C468.017 250.81 453.676 249.438 453.067 249.388C452.87 249.388 432.274 247.741 411.609 246.602C403.148 246.144 396.334 245.842 390.852 245.687C389.701 247.276 388.188 248.57 386.439 249.46C384.689 250.35 382.753 250.811 380.789 250.806ZM368.526 246.455C368.654 246.611 369.212 247.082 371.642 247.878C373.99 248.666 376.392 249.278 378.831 249.708C380.837 250.078 382.906 249.895 384.816 249.179C386.726 248.462 388.404 247.239 389.671 245.641C372.484 245.129 369.057 245.947 368.526 246.455Z" fill="#535461"/>
<path id="Vector 31" d="M469.495 182.044C468.785 196.171 469.952 195.7 464.781 197.598L464.132 197.918C458.055 200.787 409.549 222.461 324.212 221.368C233.727 220.201 213.872 213.5 201.599 197.85C201.471 197.685 201.338 197.52 201.21 197.351C201.21 197.351 195.325 186.441 200.034 176.472C200.236 175.598 200.625 174.777 201.173 174.066C205.516 167.781 226.213 151.541 323.677 154.651C323.677 154.651 427.313 149.317 463.345 168.375H463.454C464.333 168.398 470.126 168.979 469.495 182.044Z" fill="#6C63FF"/>
<path id="Vector 32" d="M201.599 197.85C201.471 197.685 201.338 197.52 201.21 197.351C201.21 197.351 195.325 186.441 200.034 176.472C200.236 175.598 200.625 174.777 201.173 174.066L201.599 197.85Z" fill="#535461"/>
<path id="Vector 33" d="M251.848 188.522C251.848 190.151 251.365 191.743 250.459 193.097C249.555 194.451 248.268 195.506 246.763 196.13C245.258 196.753 243.602 196.916 242.004 196.598C240.406 196.281 238.939 195.496 237.787 194.345C236.635 193.193 235.85 191.726 235.533 190.129C235.215 188.531 235.378 186.876 236.001 185.371C236.625 183.866 237.681 182.58 239.035 181.676C240.39 180.771 241.982 180.288 243.611 180.288C243.863 180.288 244.114 180.288 244.362 180.32C246.408 180.507 248.311 181.452 249.696 182.97C251.081 184.487 251.848 186.468 251.848 188.522Z" stroke="#535461" stroke-miterlimit="10"/>
<path id="Vector 34" d="M248.315 192.758L242.192 194.84L237.809 182.667C239.351 181.138 241.435 180.279 243.606 180.279C243.858 180.279 244.11 180.279 244.357 180.311L248.315 192.758Z" fill="#535461"/>
<path id="Vector 35" d="M418.834 169.446C424.298 169.446 428.727 167.549 428.727 165.21C428.727 162.87 424.298 160.974 418.834 160.974C413.37 160.974 408.941 162.87 408.941 165.21C408.941 167.549 413.37 169.446 418.834 169.446Z" fill="#535461"/>
<path id="Vector 36" d="M418.834 209.593C424.298 209.593 428.727 207.696 428.727 205.357C428.727 203.017 424.298 201.121 418.834 201.121C413.37 201.121 408.941 203.017 408.941 205.357C408.941 207.696 413.37 209.593 418.834 209.593Z" fill="#535461"/>
<path id="Vector 37" d="M446.391 188.87C451.854 188.87 456.284 186.973 456.284 184.634C456.284 182.294 451.854 180.398 446.391 180.398C440.927 180.398 436.497 182.294 436.497 184.634C436.497 186.973 440.927 188.87 446.391 188.87Z" fill="#535461"/>
<path id="Vector 38" d="M469.495 182.044C468.785 196.171 469.952 195.7 464.781 197.598L464.132 197.918L463.477 168.403C464.333 168.398 470.126 168.979 469.495 182.044Z" fill="#535461"/>
<path id="Vector 39" d="M464.878 195.466L467.587 203.472L470.767 202.292L465.82 193.701L464.878 195.466Z" fill="#535461"/>
</g>
<g id="ripples">
<path id="Vector 40" opacity="0.1" d="M72.424 181.999C87.9823 181.875 101.156 178.655 110.578 178.851C120 179.048 128.48 178.494 137.43 180.42" fill="white"/>
<path id="Vector 41" opacity="0.1" d="M24.2847 160.04C39.843 159.921 53.0172 156.701 62.4391 156.898C71.861 157.094 80.3357 156.541 89.2863 158.467" fill="white"/>
<path id="Vector 42" opacity="0.1" d="M123.203 225.741C138.762 225.558 151.936 220.673 161.358 220.975C170.78 221.276 179.255 220.43 188.205 223.353" fill="white"/>
<path id="Vector 43" opacity="0.1" d="M130.36 202.745C145.919 202.402 159.097 193.138 168.515 193.71C177.932 194.282 186.416 192.676 195.367 198.216" fill="white"/>
<path id="Vector 44" opacity="0.1" d="M157.839 95.081C173.397 95.021 186.572 93.411 195.993 93.507C205.415 93.603 213.895 93.328 222.845 94.294" fill="white"/>
<path id="Vector 45" opacity="0.1" d="M65.3586 87.944C80.917 87.885 94.0912 86.274 103.513 86.375C112.935 86.476 121.414 86.192 130.36 87.157" fill="white"/>
<path id="Vector 46" opacity="0.1" d="M125.336 124.601C140.894 124.537 154.073 122.926 163.49 123.027C172.908 123.128 181.392 122.849 190.342 123.809" fill="white"/>
<path id="Vector 47" opacity="0.1" d="M32.8555 105.204C48.4138 105.145 61.5926 103.534 71.0099 103.63C80.4273 103.727 88.9111 103.452 97.8617 104.417" fill="white"/>
</g>
</g>
</svg>
